<svg width="22" height="21" viewBox="0 0 22 21" fill="none" xmlns="http://www.w3.org/2000/svg">
<g id="SVG" clip-path="url(#clip0_1256_2527)">
<path id="Vector" d="M5.66072 12.5007L4.99309 14.9931L2.55293 15.0447C1.82368 13.6921 1.41003 12.1446 1.41003 10.5C1.41003 8.90977 1.79678 7.41014 2.48231 6.08968L4.65527 6.48797L5.60692 8.64736C5.40774 9.22804 5.29918 9.85139 5.29918 10.5C5.29926 11.204 5.42677 11.8785 5.66072 12.5007Z" fill="#FBBB00"/>
<path id="Vector_2" d="M20.4224 8.70825C20.5325 9.28837 20.59 9.88748 20.59 10.4998C20.59 11.1864 20.5178 11.8561 20.3803 12.5021C19.9134 14.7004 18.6936 16.62 17.0038 17.9784L14.2669 17.8382L13.8797 15.4207C15.001 14.7631 15.8772 13.734 16.3388 12.5021H11.2108V8.70825H16.4136H20.4224Z" fill="#518EF8"/>
<path id="Vector_3" d="M17.0028 17.9781C15.3593 19.2991 13.2722 20.09 10.9996 20.09C7.34748 20.09 4.17226 18.0487 2.55249 15.0447L5.66028 12.5008C6.47015 14.6622 8.55518 16.2008 10.9996 16.2008C12.0503 16.2008 13.0346 15.9168 13.8792 15.421L17.0028 17.9781Z" fill="#28B446"/>
<path id="Vector_4" d="M17.1213 3.11779L14.0145 5.66123C13.1404 5.11483 12.1071 4.79918 11 4.79918C8.50027 4.79918 6.37624 6.40839 5.60695 8.64731L2.48282 6.08964C4.07888 3.01242 7.29362 0.91 11 0.91C13.3269 0.91 15.4604 1.73886 17.1213 3.11779Z" fill="#F14336"/>
</g>
<defs>
<clipPath id="clip0_1256_2527">
<rect width="21" height="20" fill="white" transform="translate(0.5 0.5)"/>
</clipPath>
</defs>
</svg>
